<svg xmlns="http://www.w3.org/2000/svg" xmlns:xlink="http://www.w3.org/1999/xlink" xmlns:fi="http://pattern.flaticon.com/" x="0" y="0" width="1000" height="500" viewBox="0 0 1000 500"><rect x="0px" y="0px" width="100%" height="100%" opacity="1" fill="#214177"/><defs><g transform="matrix(0.46875 0 0 0.46875 300 15)" id="L1_0"><path d="M122,8H6c-3.3,0-6,2.7-6,6v80c0,3.3,2.7,6,6,6h46c0,1.719-0.89,9.083-4.469,16H42v1.55c0,1.348,1.102,2.45,2.449,2.45   h39.102c1.347,0,2.449-1.102,2.449-2.45V116h-5.531C76.89,109.083,76,101.719,76,100h46c3.3,0,6-2.7,6-6V14C128,10.7,125.3,8,122,8   z M85,117v0.55c0,0.8-0.65,1.45-1.449,1.45H44.449C43.65,119,43,118.35,43,117.55V117H85z M79.343,116H48.656   C52.123,109.112,53,101.744,53,100h22C75,101.744,75.877,109.114,79.343,116z M126,94c0,2.206-1.794,4-4,4H6c-2.206,0-4-1.794-4-4   V83h124V94z M126,82H2V14c0-2.206,1.794-4,4-4h116c2.206,0,4,1.794,4,4V82z" fill="#213966"/><path d="M118,14H10c-2.209,0-4,1.791-4,4v56c0,2.209,1.791,4,4,4h108c2.209,0,4-1.791,4-4V18C122,15.791,120.209,14,118,14z    M121,74c0,1.654-1.346,3-3,3H10c-1.654,0-3-1.346-3-3V18c0-1.654,1.346-3,3-3h108c1.654,0,3,1.346,3,3V74z" fill="#213966"/></g><g transform="matrix(0.46875 0 0 0.46875 4 211)" id="L1_1"><path d="M83,116c0,1.1,0.9,2,2,2c1.1,0,2-0.9,2-2v-8h-4V116z" fill="#f5685d"/><path d="M119.628,10H8.372C3.768,10,0,13.768,0,18.372v75.256C0,98.232,3.768,102,8.372,102H83v4h4v-4h5c0,0.55,0.45,1,1,1h10   c0.55,0,1-0.45,1-1h4c0,0.55,0.45,1,1,1h2c0.55,0,1-0.45,1-1h7.628c4.604,0,8.372-3.768,8.372-8.372V18.372   C128,13.768,124.232,10,119.628,10z M86.767,57.195l-1.375-6.873c-0.086-0.429-0.698-0.429-0.784,0l-1.375,6.873   C83.078,57.97,83,58.758,83,59.549V97H18.205C16.438,97,15,95.562,15,93.795v-75.59C15,16.438,16.438,15,18.205,15h93.59   c1.767,0,3.205,1.438,3.205,3.205v75.59c0,1.767-1.438,3.205-3.205,3.205H87V59.549C87,58.758,86.922,57.97,86.767,57.195z    M126,93.628c0,3.513-2.859,6.372-6.372,6.372H87v-2h24.795c2.322,0,4.205-1.883,4.205-4.205v-75.59   c0-2.322-1.883-4.205-4.205-4.205h-93.59C15.883,14,14,15.883,14,18.205v75.59C14,96.117,15.883,98,18.205,98H83v2H8.372   C4.859,100,2,97.141,2,93.628V18.372C2,14.859,4.859,12,8.372,12h111.256c3.513,0,6.372,2.859,6.372,6.372V93.628z" fill="#f5685d"/><path d="M8,52c-2.209,0-4,1.791-4,4c0,2.209,1.791,4,4,4c2.209,0,4-1.791,4-4C12,53.791,10.209,52,8,52z M8,59   c-1.654,0-3-1.346-3-3s1.346-3,3-3s3,1.346,3,3S9.654,59,8,59z" fill="#f5685d"/></g><g transform="matrix(3.456195715086362e-17 -0.564439594745636 0.564439594745636 3.456195715086362e-17 105.8758659362793 279.1241340637207)" id="L1_2"><path d="M116,94V32c0-3.3-2.7-6-6-6H18c-3.3,0-6,2.7-6,6v62H0v4c0,2.2,1.8,4,4,4h120c2.2,0,4-1.8,4-4v-4H116z M14,32   c0-2.206,1.794-4,4-4h92c2.206,0,4,1.794,4,4v62H14V32z M126,98c0,1.103-0.897,2-2,2H4c-1.103,0-2-0.897-2-2v-2h10h44   c0,1.1,0.9,2,2,2h12c1.1,0,2-0.9,2-2h44h10V98z" fill="#f5685d"/><path d="M109,30H19c-1.657,0-3,1.343-3,3v56c0,1.657,1.343,3,3,3h90c1.657,0,3-1.343,3-3V33C112,31.343,110.657,30,109,30z M111,89   c0,1.103-0.897,2-2,2H19c-1.103,0-2-0.897-2-2V33c0-1.103,0.897-2,2-2h90c1.103,0,2,0.897,2,2V89z" fill="#f5685d"/></g><g transform="matrix(3.3173646593297735e-17 0.5417667627334595 -0.5417667627334595 3.3173646593297735e-17 336.6730728149414 146.3269271850586)" id="L1_3"><path d="M121.844,14H6.156C2.77,14,0,16.77,0,20.156v67.688C0,91.23,2.77,94,6.156,94H52c0,1.719-0.89,9.083-4.469,16H42v1.55   c0,1.348,1.102,2.45,2.45,2.45h39.101c1.347,0,2.449-1.102,2.449-2.45V110h-5.531C76.89,103.083,76,95.719,76,94h45.844   c3.386,0,6.156-2.77,6.156-6.156V20.156C128,16.77,125.23,14,121.844,14z M85,111v0.55c0,0.8-0.65,1.45-1.449,1.45H44.45   c-0.8,0-1.45-0.65-1.45-1.45V111H85z M79.343,110H48.656C52.123,103.112,53,95.744,53,94h22C75,95.744,75.877,103.114,79.343,110z    M126,87.844c0,2.292-1.864,4.156-4.156,4.156H6.156C3.864,92,2,90.136,2,87.844V20.156C2,17.864,3.864,16,6.156,16h115.688   c2.292,0,4.156,1.864,4.156,4.156V87.844z" fill="#f5685d"/><circle cx="64" cy="90" r="1" fill="#f5685d"/><path d="M117.877,20H10.123C7.846,20,6,21.846,6,24.123v59.754C6,86.154,7.846,88,10.123,88h107.754   c2.277,0,4.123-1.846,4.123-4.123V24.123C122,21.846,120.154,20,117.877,20z M121,83.877c0,1.722-1.401,3.123-3.123,3.123H10.123   C8.401,87,7,85.599,7,83.877V24.123C7,22.401,8.401,21,10.123,21h107.754c1.722,0,3.123,1.401,3.123,3.123V83.877z" fill="#f5685d"/></g><g transform="matrix(4.549331652698009e-17 0.7429622411727905 -0.7429622411727905 4.549331652698009e-17 270.5495834350586 3.4504165649414062)" id="L1_5"><path d="M106.5,19v-2c0-0.55-0.45-1-1-1V8c0-4.4-3.6-8-8-8h-68c-4.4,0-8,3.6-8,8v112c0,4.4,3.6,8,8,8h68c4.4,0,8-3.6,8-8V36   c0.55,0,1-0.45,1-1V25c0-0.55-0.45-1-1-1v-4C106.05,20,106.5,19.55,106.5,19z M103.5,120c0,3.308-2.692,6-6,6h-68   c-3.308,0-6-2.692-6-6V8c0-3.308,2.692-6,6-6h68c3.308,0,6,2.692,6,6V120z" fill="#f5685d"/><circle cx="63" cy="7" r="1" fill="#f5685d"/><path d="M63.5,116c-2.209,0-4,1.791-4,4s1.791,4,4,4s4-1.791,4-4S65.709,116,63.5,116z M63.5,123c-1.654,0-3-1.346-3-3s1.346-3,3-3   s3,1.346,3,3S65.154,123,63.5,123z" fill="#f5685d"/><path d="M97.5,12h-68c-2.209,0-4,1.791-4,4v94c0,2.209,1.791,4,4,4h68c2.209,0,4-1.791,4-4V16C101.5,13.791,99.709,12,97.5,12z    M100.5,110c0,1.654-1.346,3-3,3h-68c-1.654,0-3-1.346-3-3V16c0-1.654,1.346-3,3-3h68c1.654,0,3,1.346,3,3V110z" fill="#f5685d"/></g><g transform="matrix(0.46875 0 0 0.46875 84 75)" id="L1_6"><path d="M96,26V8c0-4.4-3.6-8-8-8H40c-4.4,0-8,3.6-8,8v8c-0.55,0-1,0.45-1,1v2c0,0.55,0.45,1,1,1v6c-0.55,0-1,0.45-1,1v6   c0,0.55,0.45,1,1,1v2c-0.55,0-1,0.45-1,1v6c0,0.55,0.45,1,1,1v76c0,4.4,3.6,8,8,8h48c4.4,0,8-3.6,8-8V36c0.55,0,1-0.45,1-1v-8   C97,26.45,96.55,26,96,26z M94,120c0,3.308-2.692,6-6,6H40c-3.308,0-6-2.692-6-6V8c0-3.308,2.692-6,6-6h48c3.308,0,6,2.692,6,6V120   z" fill="#f5685d"/><path d="M56.5,9h15C71.775,9,72,8.775,72,8.5S71.775,8,71.5,8h-15C56.225,8,56,8.225,56,8.5S56.225,9,56.5,9z" fill="#f5685d"/><path d="M64,116c-2.209,0-4,1.791-4,4s1.791,4,4,4s4-1.791,4-4S66.209,116,64,116z M64,123c-1.654,0-3-1.346-3-3s1.346-3,3-3   s3,1.346,3,3S65.654,123,64,123z" fill="#f5685d"/><path d="M88.02,15H39.98C37.782,15,36,16.782,36,18.98v91.04c0,2.198,1.782,3.98,3.98,3.98h48.04c2.198,0,3.98-1.782,3.98-3.98   V18.98C92,16.782,90.218,15,88.02,15z M91,110.02c0,1.643-1.337,2.98-2.98,2.98H39.98c-1.643,0-2.98-1.337-2.98-2.98V18.98   c0-1.643,1.337-2.98,2.98-2.98h48.04c1.643,0,2.98,1.337,2.98,2.98V110.02z" fill="#f5685d"/></g><g transform="matrix(3.6605317935070696e-17 0.5978102087974548 -0.5978102087974548 3.6605317935070696e-17 157.2598533630371 297.7401466369629)" id="L1_7"><path d="M96,26V8c0-4.4-3.6-8-8-8H40c-4.4,0-8,3.6-8,8v8c-0.55,0-1,0.45-1,1v2c0,0.55,0.45,1,1,1v6c-0.55,0-1,0.45-1,1v6   c0,0.55,0.45,1,1,1v2c-0.55,0-1,0.45-1,1v6c0,0.55,0.45,1,1,1v76c0,4.4,3.6,8,8,8h48c4.4,0,8-3.6,8-8V36c0.55,0,1-0.45,1-1v-8   C97,26.45,96.55,26,96,26z M94,120c0,3.308-2.692,6-6,6H40c-3.308,0-6-2.692-6-6V8c0-3.308,2.692-6,6-6h48c3.308,0,6,2.692,6,6V120   z" fill="#f5685d"/><path d="M56.5,9h15C71.775,9,72,8.775,72,8.5S71.775,8,71.5,8h-15C56.225,8,56,8.225,56,8.5S56.225,9,56.5,9z" fill="#f5685d"/><path d="M64,116c-2.209,0-4,1.791-4,4s1.791,4,4,4s4-1.791,4-4S66.209,116,64,116z M64,123c-1.654,0-3-1.346-3-3s1.346-3,3-3   s3,1.346,3,3S65.654,123,64,123z" fill="#f5685d"/><path d="M88.02,15H39.98C37.782,15,36,16.782,36,18.98v91.04c0,2.198,1.782,3.98,3.98,3.98h48.04c2.198,0,3.98-1.782,3.98-3.98   V18.98C92,16.782,90.218,15,88.02,15z M91,110.02c0,1.643-1.337,2.98-2.98,2.98H39.98c-1.643,0-2.98-1.337-2.98-2.98V18.98   c0-1.643,1.337-2.98,2.98-2.98h48.04c1.643,0,2.98,1.337,2.98,2.98V110.02z" fill="#f5685d"/></g><g transform="matrix(2.0426520062775543e-17 -0.33359038829803467 0.33359038829803467 2.0426520062775543e-17 181.65021514892578 176.34978485107422)" id="L1_8"><path d="M96,26V8c0-4.4-3.6-8-8-8H40c-4.4,0-8,3.6-8,8v8c-0.55,0-1,0.45-1,1v2c0,0.55,0.45,1,1,1v6c-0.55,0-1,0.45-1,1v6   c0,0.55,0.45,1,1,1v2c-0.55,0-1,0.45-1,1v6c0,0.55,0.45,1,1,1v76c0,4.4,3.6,8,8,8h48c4.4,0,8-3.6,8-8V36c0.55,0,1-0.45,1-1v-8   C97,26.45,96.55,26,96,26z M94,120c0,3.308-2.692,6-6,6H40c-3.308,0-6-2.692-6-6V8c0-3.308,2.692-6,6-6h48c3.308,0,6,2.692,6,6V120   z" fill="#f5685d"/><path d="M56.5,9h15C71.775,9,72,8.775,72,8.5S71.775,8,71.5,8h-15C56.225,8,56,8.225,56,8.5S56.225,9,56.5,9z" fill="#f5685d"/><path d="M64,116c-2.209,0-4,1.791-4,4s1.791,4,4,4s4-1.791,4-4S66.209,116,64,116z M64,123c-1.654,0-3-1.346-3-3s1.346-3,3-3   s3,1.346,3,3S65.654,123,64,123z" fill="#f5685d"/><path d="M88.02,15H39.98C37.782,15,36,16.782,36,18.98v91.04c0,2.198,1.782,3.98,3.98,3.98h48.04c2.198,0,3.98-1.782,3.98-3.98   V18.98C92,16.782,90.218,15,88.02,15z M91,110.02c0,1.643-1.337,2.98-2.98,2.98H39.98c-1.643,0-2.98-1.337-2.98-2.98V18.98   c0-1.643,1.337-2.98,2.98-2.98h48.04c1.643,0,2.98,1.337,2.98,2.98V110.02z" fill="#f5685d"/></g><g transform="matrix(0.46875 0 0 0.46875 10 116)" id="L1_10"><path d="M106.5,19v-2c0-0.55-0.45-1-1-1V8c0-4.4-3.6-8-8-8h-68c-4.4,0-8,3.6-8,8v112c0,4.4,3.6,8,8,8h68c4.4,0,8-3.6,8-8V36   c0.55,0,1-0.45,1-1V25c0-0.55-0.45-1-1-1v-4C106.05,20,106.5,19.55,106.5,19z M103.5,120c0,3.308-2.692,6-6,6h-68   c-3.308,0-6-2.692-6-6V8c0-3.308,2.692-6,6-6h68c3.308,0,6,2.692,6,6V120z" fill="#f5685d"/><circle cx="63" cy="7" r="1" fill="#f5685d"/><path d="M63.5,116c-2.209,0-4,1.791-4,4s1.791,4,4,4s4-1.791,4-4S65.709,116,63.5,116z M63.5,123c-1.654,0-3-1.346-3-3s1.346-3,3-3   s3,1.346,3,3S65.154,123,63.5,123z" fill="#f5685d"/><path d="M97.5,12h-68c-2.209,0-4,1.791-4,4v94c0,2.209,1.791,4,4,4h68c2.209,0,4-1.791,4-4V16C101.5,13.791,99.709,12,97.5,12z    M100.5,110c0,1.654-1.346,3-3,3h-68c-1.654,0-3-1.346-3-3V16c0-1.654,1.346-3,3-3h68c1.654,0,3,1.346,3,3V110z" fill="#f5685d"/></g><g transform="matrix(3.071932965004379e-17 -0.5016847252845764 0.5016847252845764 3.071932965004379e-17 201.8921775817871 317.1078224182129)" id="L1_12"><path d="M96,26V8c0-4.4-3.6-8-8-8H40c-4.4,0-8,3.6-8,8v8c-0.55,0-1,0.45-1,1v2c0,0.55,0.45,1,1,1v6c-0.55,0-1,0.45-1,1v6   c0,0.55,0.45,1,1,1v2c-0.55,0-1,0.45-1,1v6c0,0.55,0.45,1,1,1v76c0,4.4,3.6,8,8,8h48c4.4,0,8-3.6,8-8V36c0.55,0,1-0.45,1-1v-8   C97,26.45,96.55,26,96,26z M94,120c0,3.308-2.692,6-6,6H40c-3.308,0-6-2.692-6-6V8c0-3.308,2.692-6,6-6h48c3.308,0,6,2.692,6,6V120   z" fill="#f5685d"/><path d="M56.5,9h15C71.775,9,72,8.775,72,8.5S71.775,8,71.5,8h-15C56.225,8,56,8.225,56,8.5S56.225,9,56.5,9z" fill="#f5685d"/><path d="M64,116c-2.209,0-4,1.791-4,4s1.791,4,4,4s4-1.791,4-4S66.209,116,64,116z M64,123c-1.654,0-3-1.346-3-3s1.346-3,3-3   s3,1.346,3,3S65.654,123,64,123z" fill="#f5685d"/><path d="M88.02,15H39.98C37.782,15,36,16.782,36,18.98v91.04c0,2.198,1.782,3.98,3.98,3.98h48.04c2.198,0,3.98-1.782,3.98-3.98   V18.98C92,16.782,90.218,15,88.02,15z M91,110.02c0,1.643-1.337,2.98-2.98,2.98H39.98c-1.643,0-2.98-1.337-2.98-2.98V18.98   c0-1.643,1.337-2.98,2.98-2.98h48.04c1.643,0,2.98,1.337,2.98,2.98V110.02z" fill="#f5685d"/></g><g transform="matrix(0.46875 0 0 0.46875 317 282)" id="L1_15"><path d="M121.844,14H6.156C2.77,14,0,16.77,0,20.156v67.688C0,91.23,2.77,94,6.156,94H52c0,1.719-0.89,9.083-4.469,16H42v1.55   c0,1.348,1.102,2.45,2.45,2.45h39.101c1.347,0,2.449-1.102,2.449-2.45V110h-5.531C76.89,103.083,76,95.719,76,94h45.844   c3.386,0,6.156-2.77,6.156-6.156V20.156C128,16.77,125.23,14,121.844,14z M85,111v0.55c0,0.8-0.65,1.45-1.449,1.45H44.45   c-0.8,0-1.45-0.65-1.45-1.45V111H85z M79.343,110H48.656C52.123,103.112,53,95.744,53,94h22C75,95.744,75.877,103.114,79.343,110z    M126,87.844c0,2.292-1.864,4.156-4.156,4.156H6.156C3.864,92,2,90.136,2,87.844V20.156C2,17.864,3.864,16,6.156,16h115.688   c2.292,0,4.156,1.864,4.156,4.156V87.844z" fill="#f5685d"/><circle cx="64" cy="90" r="1" fill="#f5685d"/><path d="M117.877,20H10.123C7.846,20,6,21.846,6,24.123v59.754C6,86.154,7.846,88,10.123,88h107.754   c2.277,0,4.123-1.846,4.123-4.123V24.123C122,21.846,120.154,20,117.877,20z M121,83.877c0,1.722-1.401,3.123-3.123,3.123H10.123   C8.401,87,7,85.599,7,83.877V24.123C7,22.401,8.401,21,10.123,21h107.754c1.722,0,3.123,1.401,3.123,3.123V83.877z" fill="#f5685d"/></g><g transform="matrix(2.8924986421726267e-17 -0.4723808765411377 0.4723808765411377 2.8924986421726267e-17 -16.232376098632816 81.23237609863281)" id="L1_16"><path d="M96,26V8c0-4.4-3.6-8-8-8H40c-4.4,0-8,3.6-8,8v8c-0.55,0-1,0.45-1,1v2c0,0.55,0.45,1,1,1v6c-0.55,0-1,0.45-1,1v6   c0,0.55,0.45,1,1,1v2c-0.55,0-1,0.45-1,1v6c0,0.55,0.45,1,1,1v76c0,4.4,3.6,8,8,8h48c4.4,0,8-3.6,8-8V36c0.55,0,1-0.45,1-1v-8   C97,26.45,96.55,26,96,26z M94,120c0,3.308-2.692,6-6,6H40c-3.308,0-6-2.692-6-6V8c0-3.308,2.692-6,6-6h48c3.308,0,6,2.692,6,6V120   z" fill="#f5685d"/><path d="M56.5,9h15C71.775,9,72,8.775,72,8.5S71.775,8,71.5,8h-15C56.225,8,56,8.225,56,8.5S56.225,9,56.5,9z" fill="#f5685d"/><path d="M64,116c-2.209,0-4,1.791-4,4s1.791,4,4,4s4-1.791,4-4S66.209,116,64,116z M64,123c-1.654,0-3-1.346-3-3s1.346-3,3-3   s3,1.346,3,3S65.654,123,64,123z" fill="#f5685d"/><path d="M88.02,15H39.98C37.782,15,36,16.782,36,18.98v91.04c0,2.198,1.782,3.98,3.98,3.98h48.04c2.198,0,3.98-1.782,3.98-3.98   V18.98C92,16.782,90.218,15,88.02,15z M91,110.02c0,1.643-1.337,2.98-2.98,2.98H39.98c-1.643,0-2.98-1.337-2.98-2.98V18.98   c0-1.643,1.337-2.98,2.98-2.98h48.04c1.643,0,2.98,1.337,2.98,2.98V110.02z" fill="#f5685d"/></g></defs><g fi:class="KUsePattern"><pattern id="pattern_L1_0" width="350" height="350" patternUnits="userSpaceOnUse"><use xlink:href="#L1_0" x="-350" y="-350"/><use xlink:href="#L1_0" x="0" y="-350"/><use xlink:href="#L1_0" x="350" y="-350"/><use xlink:href="#L1_0" x="-350" y="0"/><use xlink:href="#L1_0" x="0" y="0"/><use xlink:href="#L1_0" x="350" y="0"/><use xlink:href="#L1_0" x="-350" y="350"/><use xlink:href="#L1_0" x="0" y="350"/><use xlink:href="#L1_0" x="350" y="350"/></pattern><rect x="0" y="0" width="100%" height="100%" fill="url(#pattern_L1_0)"/></g><g fi:class="KUsePattern"><pattern id="pattern_L1_1" width="350" height="350" patternUnits="userSpaceOnUse"><use xlink:href="#L1_1" x="-350" y="-350"/><use xlink:href="#L1_1" x="0" y="-350"/><use xlink:href="#L1_1" x="350" y="-350"/><use xlink:href="#L1_1" x="-350" y="0"/><use xlink:href="#L1_1" x="0" y="0"/><use xlink:href="#L1_1" x="350" y="0"/><use xlink:href="#L1_1" x="-350" y="350"/><use xlink:href="#L1_1" x="0" y="350"/><use xlink:href="#L1_1" x="350" y="350"/></pattern><rect x="0" y="0" width="100%" height="100%" fill="url(#pattern_L1_1)"/></g><g fi:class="KUsePattern"><pattern id="pattern_L1_3" width="350" height="350" patternUnits="userSpaceOnUse"><use xlink:href="#L1_3" x="-350" y="-350"/><use xlink:href="#L1_3" x="0" y="-350"/><use xlink:href="#L1_3" x="350" y="-350"/><use xlink:href="#L1_3" x="-350" y="0"/><use xlink:href="#L1_3" x="0" y="0"/><use xlink:href="#L1_3" x="350" y="0"/><use xlink:href="#L1_3" x="-350" y="350"/><use xlink:href="#L1_3" x="0" y="350"/><use xlink:href="#L1_3" x="350" y="350"/></pattern><rect x="0" y="0" width="100%" height="100%" fill="url(#pattern_L1_3)"/></g><g fi:class="KUsePattern"><pattern id="pattern_L1_6" width="350" height="350" patternUnits="userSpaceOnUse"><use xlink:href="#L1_6" x="-350" y="-350"/><use xlink:href="#L1_6" x="0" y="-350"/><use xlink:href="#L1_6" x="350" y="-350"/><use xlink:href="#L1_6" x="-350" y="0"/><use xlink:href="#L1_6" x="0" y="0"/><use xlink:href="#L1_6" x="350" y="0"/><use xlink:href="#L1_6" x="-350" y="350"/><use xlink:href="#L1_6" x="0" y="350"/><use xlink:href="#L1_6" x="350" y="350"/></pattern><rect x="0" y="0" width="100%" height="100%" fill="url(#pattern_L1_6)"/></g><g fi:class="KUsePattern"><pattern id="pattern_L1_5" width="350" height="350" patternUnits="userSpaceOnUse"><use xlink:href="#L1_5" x="-350" y="-350"/><use xlink:href="#L1_5" x="0" y="-350"/><use xlink:href="#L1_5" x="350" y="-350"/><use xlink:href="#L1_5" x="-350" y="0"/><use xlink:href="#L1_5" x="0" y="0"/><use xlink:href="#L1_5" x="350" y="0"/><use xlink:href="#L1_5" x="-350" y="350"/><use xlink:href="#L1_5" x="0" y="350"/><use xlink:href="#L1_5" x="350" y="350"/></pattern><rect x="0" y="0" width="100%" height="100%" fill="url(#pattern_L1_5)"/></g><g fi:class="KUsePattern"><pattern id="pattern_L1_2" width="350" height="350" patternUnits="userSpaceOnUse"><use xlink:href="#L1_2" x="-350" y="-350"/><use xlink:href="#L1_2" x="0" y="-350"/><use xlink:href="#L1_2" x="350" y="-350"/><use xlink:href="#L1_2" x="-350" y="0"/><use xlink:href="#L1_2" x="0" y="0"/><use xlink:href="#L1_2" x="350" y="0"/><use xlink:href="#L1_2" x="-350" y="350"/><use xlink:href="#L1_2" x="0" y="350"/><use xlink:href="#L1_2" x="350" y="350"/></pattern><rect x="0" y="0" width="100%" height="100%" fill="url(#pattern_L1_2)"/></g><g fi:class="KUsePattern"><pattern id="pattern_L1_7" width="350" height="350" patternUnits="userSpaceOnUse"><use xlink:href="#L1_7" x="-350" y="-350"/><use xlink:href="#L1_7" x="0" y="-350"/><use xlink:href="#L1_7" x="350" y="-350"/><use xlink:href="#L1_7" x="-350" y="0"/><use xlink:href="#L1_7" x="0" y="0"/><use xlink:href="#L1_7" x="350" y="0"/><use xlink:href="#L1_7" x="-350" y="350"/><use xlink:href="#L1_7" x="0" y="350"/><use xlink:href="#L1_7" x="350" y="350"/></pattern><rect x="0" y="0" width="100%" height="100%" fill="url(#pattern_L1_7)"/></g><g fi:class="KUsePattern"><pattern id="pattern_L1_8" width="350" height="350" patternUnits="userSpaceOnUse"><use xlink:href="#L1_8" x="-350" y="-350"/><use xlink:href="#L1_8" x="0" y="-350"/><use xlink:href="#L1_8" x="350" y="-350"/><use xlink:href="#L1_8" x="-350" y="0"/><use xlink:href="#L1_8" x="0" y="0"/><use xlink:href="#L1_8" x="350" y="0"/><use xlink:href="#L1_8" x="-350" y="350"/><use xlink:href="#L1_8" x="0" y="350"/><use xlink:href="#L1_8" x="350" y="350"/></pattern><rect x="0" y="0" width="100%" height="100%" fill="url(#pattern_L1_8)"/></g><g fi:class="KUsePattern"><pattern id="pattern_L1_10" width="350" height="350" patternUnits="userSpaceOnUse"><use xlink:href="#L1_10" x="-350" y="-350"/><use xlink:href="#L1_10" x="0" y="-350"/><use xlink:href="#L1_10" x="350" y="-350"/><use xlink:href="#L1_10" x="-350" y="0"/><use xlink:href="#L1_10" x="0" y="0"/><use xlink:href="#L1_10" x="350" y="0"/><use xlink:href="#L1_10" x="-350" y="350"/><use xlink:href="#L1_10" x="0" y="350"/><use xlink:href="#L1_10" x="350" y="350"/></pattern><rect x="0" y="0" width="100%" height="100%" fill="url(#pattern_L1_10)"/></g><g fi:class="KUsePattern"><pattern id="pattern_L1_12" width="350" height="350" patternUnits="userSpaceOnUse"><use xlink:href="#L1_12" x="-350" y="-350"/><use xlink:href="#L1_12" x="0" y="-350"/><use xlink:href="#L1_12" x="350" y="-350"/><use xlink:href="#L1_12" x="-350" y="0"/><use xlink:href="#L1_12" x="0" y="0"/><use xlink:href="#L1_12" x="350" y="0"/><use xlink:href="#L1_12" x="-350" y="350"/><use xlink:href="#L1_12" x="0" y="350"/><use xlink:href="#L1_12" x="350" y="350"/></pattern><rect x="0" y="0" width="100%" height="100%" fill="url(#pattern_L1_12)"/></g><g fi:class="KUsePattern"><pattern id="pattern_L1_15" width="350" height="350" patternUnits="userSpaceOnUse"><use xlink:href="#L1_15" x="-350" y="-350"/><use xlink:href="#L1_15" x="0" y="-350"/><use xlink:href="#L1_15" x="350" y="-350"/><use xlink:href="#L1_15" x="-350" y="0"/><use xlink:href="#L1_15" x="0" y="0"/><use xlink:href="#L1_15" x="350" y="0"/><use xlink:href="#L1_15" x="-350" y="350"/><use xlink:href="#L1_15" x="0" y="350"/><use xlink:href="#L1_15" x="350" y="350"/></pattern><rect x="0" y="0" width="100%" height="100%" fill="url(#pattern_L1_15)"/></g><g fi:class="KUsePattern"><pattern id="pattern_L1_16" width="350" height="350" patternUnits="userSpaceOnUse"><use xlink:href="#L1_16" x="-350" y="-350"/><use xlink:href="#L1_16" x="0" y="-350"/><use xlink:href="#L1_16" x="350" y="-350"/><use xlink:href="#L1_16" x="-350" y="0"/><use xlink:href="#L1_16" x="0" y="0"/><use xlink:href="#L1_16" x="350" y="0"/><use xlink:href="#L1_16" x="-350" y="350"/><use xlink:href="#L1_16" x="0" y="350"/><use xlink:href="#L1_16" x="350" y="350"/></pattern><rect x="0" y="0" width="100%" height="100%" fill="url(#pattern_L1_16)"/></g></svg>